<svg width="27" height="22" viewBox="0 0 27 22" fill="none" xmlns="http://www.w3.org/2000/svg">
<path fillRule="evenodd" clipRule="evenodd" d="M9.01816 1.69797e-07C8.24341 1.69797e-07 7.58392 0.480022 7.32433 1.20987L7.08236 1.87222C6.69229 1.98914 6.31155 2.14282 5.94886 2.33072L5.32477 2.03782C4.49502 1.64246 3.45645 1.95359 2.9686 2.72547C2.63652 3.25116 2.5972 3.88049 2.85393 4.4193L3.15964 5.14521C3.12137 5.28428 3.01349 5.48813 2.91767 5.66743C2.82516 5.841 2.7322 6.02482 2.65023 6.22776L2.06441 6.44427C1.33803 6.70237 0.867188 7.36713 0.867188 8.13825C0.867188 8.91585 1.34223 9.58364 2.07706 9.84473L2.63739 10.0486C2.76621 10.4882 2.94114 10.9166 3.15961 11.3222L2.90482 11.8443C2.63301 12.4161 2.67219 13.0469 3.00682 13.5764C3.48565 14.3341 4.49152 14.6427 5.31193 14.2514L5.8468 13.9967C6.25076 14.2139 6.67698 14.3892 7.12043 14.5188L7.32429 15.0793C7.5839 15.8084 8.24337 16.2892 9.01812 16.2892C9.79287 16.2892 10.4656 15.8084 10.7248 15.0793L10.9285 14.4933C11.3479 14.363 11.7632 14.1967 12.1511 13.9839L12.7243 14.2514C12.9748 14.3709 13.2458 14.4293 13.5139 14.4298C14.1231 14.4298 14.6964 14.1025 15.0294 13.5764C15.364 13.0469 15.4035 12.417 15.1314 11.8443L14.8383 11.2202C15.0283 10.8551 15.1791 10.4813 15.2968 10.0867L15.9592 9.84472C16.6887 9.58512 17.169 8.91253 17.169 8.13824C17.169 7.36381 16.6887 6.70358 15.9592 6.44426L15.2714 6.18963C15.1532 5.81838 14.9955 5.46537 14.8129 5.11973L15.1314 4.44473C15.4035 3.87264 15.364 3.24254 15.0294 2.7128C14.5501 1.95506 13.543 1.64772 12.7243 2.0378L12.0493 2.35616C11.7044 2.1743 11.3503 2.0277 10.9794 1.91031L10.7247 1.20986C10.4656 0.480315 9.79285 -1.52588e-05 9.01811 -1.52588e-05L9.01816 1.69797e-07ZM9.01816 1.22268C9.11519 1.22268 9.45059 1.25718 9.57849 1.61742L9.89685 2.53438C9.91162 2.57431 9.92789 2.60459 9.94793 2.64904C10.0228 2.81899 10.176 2.94556 10.3555 2.99287C10.831 3.11807 11.2803 3.31455 11.7055 3.566C11.8643 3.66047 12.0552 3.68096 12.2275 3.61693C12.2741 3.59945 12.3311 3.5761 12.3805 3.5532L13.2464 3.13296C13.5253 2.99962 13.8389 3.11081 13.9979 3.36213C14.0606 3.46082 14.1567 3.66874 14.036 3.92261L13.6158 4.80131C13.5954 4.8453 13.5688 4.88342 13.552 4.92862C13.4865 5.10235 13.5085 5.29143 13.603 5.45084C13.8561 5.8771 14.0506 6.33799 14.1761 6.81365C14.2237 6.99249 14.3635 7.14573 14.5327 7.2212C14.5706 7.23777 14.6011 7.26112 14.6346 7.27212L15.5515 7.59049C15.9123 7.71841 15.9463 8.04158 15.9463 8.13816C15.9463 8.23504 15.9122 8.57012 15.5515 8.69849L14.6474 9.01686C14.6168 9.0274 14.5813 9.03915 14.5454 9.05513C14.3699 9.13091 14.2468 9.28957 14.2016 9.47536C14.0794 9.97467 13.8877 10.4452 13.6284 10.8891C13.5352 11.0495 13.5239 11.2635 13.5903 11.4366C13.596 11.4514 13.6091 11.486 13.6158 11.5003L14.036 12.3664C14.1567 12.6207 14.0606 12.8285 13.9979 12.9267C13.8874 13.1019 13.7074 13.207 13.5139 13.207C13.4287 13.207 13.3319 13.1967 13.2463 13.156L12.3805 12.7357C12.1938 12.646 11.9714 12.6652 11.7945 12.7739C11.3312 13.0604 10.8384 13.2647 10.3172 13.398C10.1195 13.4481 9.95227 13.6008 9.88414 13.7928L9.57843 14.6716C9.45052 15.0322 9.11511 15.0664 9.01811 15.0664C8.92108 15.0664 8.5988 15.0322 8.47043 14.6716L8.16487 13.8056C8.09556 13.6103 7.93314 13.4711 7.73183 13.4235C7.18446 13.293 6.66552 13.0748 6.19078 12.7866C6.09375 12.728 5.98286 12.6975 5.87242 12.6975C5.78262 12.6975 5.70081 12.7217 5.61763 12.7611L4.78985 13.156C4.50946 13.2897 4.1977 13.1791 4.03832 12.9267C3.9761 12.8285 3.89187 12.6211 4.01286 12.3664L4.40776 11.5512C4.49575 11.3658 4.47541 11.1535 4.36949 10.9781C4.079 10.4988 3.87303 9.97706 3.7454 9.43706C3.69688 9.23502 3.54667 9.07305 3.35066 9.00418L2.48461 8.69847C2.11864 8.56799 2.08987 8.23623 2.08987 8.13814C2.08987 8.04276 2.11202 7.71883 2.47182 7.59046L3.33786 7.2721C3.52695 7.20279 3.66994 7.047 3.71996 6.85175C3.76772 6.66507 3.88284 6.46136 4.00021 6.24046C4.19623 5.87358 4.39495 5.49283 4.39495 5.05605C4.39495 4.97409 4.38892 4.88941 4.35683 4.81408L3.97473 3.92257C3.86595 3.69311 3.92607 3.4927 4.00019 3.3749C4.16683 3.11198 4.50209 2.99642 4.78987 3.13292L5.65591 3.55316C5.67987 3.56506 5.70157 3.57214 5.71949 3.57862C5.89804 3.65697 6.11154 3.63784 6.27982 3.5405C6.72324 3.28286 7.19802 3.1016 7.69354 2.98018C7.87736 2.93528 8.03722 2.78401 8.1139 2.61074C8.1261 2.58392 8.14147 2.55182 8.15202 2.52169L8.47038 1.61738C8.59875 1.25713 8.92105 1.22264 9.01806 1.22264L9.01816 1.22268ZM9.0055 4.39383C6.87158 4.39383 5.1337 6.12021 5.1337 8.25291C5.1337 10.3861 6.87154 12.1247 9.0055 12.1247C11.139 12.1247 12.8773 10.3861 12.8773 8.25291C12.8773 6.12033 11.1392 4.39383 9.0055 4.39383V4.39383ZM9.0055 5.6037C10.4649 5.6037 11.6544 6.79413 11.6544 8.25279C11.6544 9.71187 10.4649 10.9019 9.0055 10.9019C7.54596 10.9019 6.35642 9.71187 6.35642 8.25279C6.35642 6.79417 7.54596 5.6037 9.0055 5.6037V5.6037ZM20.4678 9.81918C19.8597 9.81918 19.3343 10.1891 19.1306 10.7616L19.0031 11.1311C18.7937 11.1987 18.5903 11.2756 18.3918 11.373L18.048 11.2075C17.3722 10.8867 16.4667 11.1776 16.0611 11.8187C15.8276 12.1885 15.7822 12.6256 15.9338 13.016L16.0102 13.4745C15.9996 13.5976 15.9441 13.7631 15.8829 13.9456C15.8669 13.9934 15.8478 14.0372 15.832 14.0857L15.6281 14.1749C15.0694 14.3738 14.6984 14.8929 14.6984 15.4867C14.6984 16.1079 15.0845 16.6379 15.679 16.8495L15.9847 16.9513C16.0622 17.1898 16.1566 17.4323 16.2776 17.6646L16.163 17.932C15.9528 18.3738 15.9802 18.8724 16.2395 19.282C16.6156 19.8766 17.4098 20.1214 18.048 19.8169L18.3154 19.6896C18.5436 19.8061 18.7837 19.905 19.0286 19.9825L19.1306 20.2627C19.3343 20.8353 19.8596 21.2052 20.4677 21.2052C21.0759 21.2052 21.6013 20.8353 21.8049 20.2627L21.9069 19.957C22.1367 19.8803 22.3654 19.7893 22.5819 19.6768L22.8749 19.8169C23.0704 19.9099 23.2878 19.9566 23.4989 19.957C23.977 19.957 24.4356 19.7068 24.696 19.2947C24.9556 18.8852 24.9827 18.375 24.7725 17.932L24.607 17.6009C24.7052 17.4008 24.7932 17.1883 24.8616 16.9768L25.2182 16.8494C25.7908 16.646 26.1607 16.1198 26.1607 15.5121C26.1607 14.9044 25.7908 14.3783 25.2182 14.1749L24.8361 14.0476C24.7685 13.8507 24.6876 13.6607 24.5942 13.4745L24.7726 13.1052C24.9824 12.6625 24.9556 12.1523 24.696 11.7424C24.3211 11.149 23.5179 10.9027 22.8749 11.2075L22.5056 11.3857C22.3196 11.2932 22.1289 11.2106 21.9324 11.1438L21.805 10.7617C21.6013 10.1891 21.0754 9.8192 20.4678 9.8192L20.4678 9.81918ZM20.4678 11.0419C20.5302 11.0419 20.6078 11.0744 20.646 11.182L20.8625 11.7933C20.8732 11.8231 20.8972 11.8457 20.9135 11.8825C20.9868 12.0565 21.1258 12.1906 21.3084 12.2391C21.6115 12.3189 21.9038 12.4351 22.1744 12.5956C22.3346 12.6897 22.5357 12.7117 22.7093 12.6466C22.7444 12.6335 22.7705 12.6144 22.8111 12.5956L23.4098 12.3155C23.5104 12.2674 23.6094 12.3051 23.6645 12.3919C23.7186 12.4775 23.6758 12.5593 23.6645 12.5829L23.3843 13.1687C23.3697 13.1998 23.3616 13.2304 23.346 13.2706C23.2788 13.4451 23.2885 13.645 23.3843 13.8056C23.5457 14.077 23.6737 14.3688 23.7536 14.6717C23.8014 14.851 23.9284 14.9911 24.0976 15.0664C24.1285 15.0803 24.1517 15.1047 24.1866 15.1173L24.8107 15.3338C24.9183 15.3721 24.938 15.4494 24.938 15.5121C24.938 15.5749 24.918 15.6649 24.8107 15.7031L24.1866 15.9196C24.1789 15.9225 24.1431 15.9419 24.1357 15.9451C23.9528 16.0182 23.8133 16.174 23.7664 16.3655C23.689 16.6834 23.5625 16.9856 23.397 17.2696C23.3032 17.4307 23.2912 17.6314 23.3588 17.8046C23.3641 17.8188 23.3778 17.8548 23.3843 17.8682L23.6645 18.4542C23.6763 18.4786 23.7186 18.5473 23.6645 18.6324C23.6266 18.6924 23.5609 18.7343 23.499 18.7343C23.4708 18.7343 23.4416 18.7239 23.4098 18.7088L22.8239 18.4285C22.6368 18.3401 22.4149 18.3585 22.238 18.4668C21.9418 18.6494 21.615 18.7896 21.2829 18.8744C21.086 18.9245 20.9306 19.0648 20.8625 19.2565L20.646 19.8551C20.6078 19.9627 20.5306 19.9824 20.4678 19.9824C20.405 19.9824 20.3147 19.9627 20.2767 19.8551L20.073 19.2692C20.0033 19.0743 19.8418 18.9353 19.64 18.8871C19.2915 18.8043 18.9629 18.6633 18.6593 18.4797C18.5622 18.4209 18.4509 18.3905 18.3409 18.3905C18.2516 18.3905 18.1562 18.4146 18.0735 18.4542L17.5258 18.7088C17.4242 18.7569 17.3265 18.7209 17.271 18.6324C17.2172 18.5476 17.2449 18.4831 17.2584 18.4542L17.5258 17.8937C17.6118 17.7087 17.5936 17.495 17.4875 17.3206C17.292 16.9987 17.1574 16.6668 17.08 16.34C17.0316 16.1354 16.8841 15.9751 16.6852 15.907L16.074 15.7031C15.9313 15.6522 15.921 15.5246 15.921 15.4866C15.921 15.3718 15.9976 15.3447 16.0612 15.3212L16.5706 15.1047C16.7471 15.0308 16.8796 14.8821 16.9272 14.6971C16.9585 14.5748 17.0027 14.4574 17.0419 14.3405C17.138 14.0544 17.2329 13.7471 17.2329 13.4235C17.2329 13.3908 17.2377 13.3661 17.2329 13.3343L17.1311 12.7485C17.1216 12.6909 17.1053 12.635 17.08 12.5829C17.0711 12.5629 17.0557 12.5394 17.0928 12.4811C17.1776 12.3465 17.3958 12.2526 17.5258 12.3155L18.1117 12.5956C18.1255 12.6025 18.1611 12.6155 18.1754 12.6212C18.3511 12.6929 18.546 12.6783 18.7103 12.5829C18.9935 12.4178 19.2991 12.3037 19.6146 12.2263C19.7987 12.1811 19.9581 12.0434 20.0348 11.8696C20.041 11.8558 20.0554 11.8071 20.0603 11.7932L20.2768 11.182C20.3147 11.0744 20.4047 11.0418 20.4678 11.0418L20.4678 11.0419ZM20.455 12.9905C19.0214 12.9905 17.857 14.1549 17.857 15.5886C17.857 17.0222 19.0214 18.1866 20.455 18.1866C21.8892 18.1866 23.0531 17.0222 23.0531 15.5886C23.0531 14.1548 21.8892 12.9905 20.455 12.9905ZM20.455 14.2132C21.2151 14.2132 21.8306 14.8285 21.8306 15.5886C21.8306 16.3483 21.2151 16.9641 20.455 16.9641C19.695 16.9641 19.0795 16.3483 19.0795 15.5886C19.0795 14.8285 19.695 14.2132 20.455 14.2132Z" fill="white"/>
</svg>
