<svg width="16" height="20" viewBox="0 0 16 20" fill="none" xmlns="http://www.w3.org/2000/svg">
<path fill-rule="evenodd" clip-rule="evenodd" d="M13 6.00035H12V4.11035C12 1.90121 10.2091 0.110352 8 0.110352C5.79086 0.110352 4 1.90121 4 4.11035V6.00035H3H3C1.34315 6.00035 0 7.3435 0 9.00035V17.0004V17.0004C2.50178e-07 18.6572 1.34315 20.0004 3 20.0004H13C14.6568 20.0004 16 18.6572 16 17.0004V9.00035C16 7.3435 14.6568 6.00035 13 6.00035V6.00035ZM6 4.11035V4.11035C5.972 2.97631 6.86609 2.03305 8 2.00035C9.13391 2.03304 10.028 2.97632 10 4.11035V6.00035H6V4.11035ZM8 16.0004C6.34315 16.0004 5 14.6572 5 13.0004C5 11.3435 6.34315 10.0004 8 10.0004C9.65685 10.0004 11 11.3435 11 13.0004C11 14.6572 9.65685 16.0004 8 16.0004Z" fill="#E20074"/>
</svg>
