<svg width="16" height="16" viewBox="0 0 16 16" fill="none" xmlns="http://www.w3.org/2000/svg">
<path fillRule="evenodd" clipRule="evenodd" d="M12.668 7.33333H8.66797V3.33333C8.66797 2.96514 8.36949 2.66666 8.0013 2.66666C7.63311 2.66666 7.33464 2.96514 7.33464 3.33333V7.33333H3.33464C2.96645 7.33333 2.66797 7.63181 2.66797 8C2.66797 8.36819 2.96645 8.66666 3.33464 8.66666H7.33464V12.6667C7.33464 13.0349 7.63311 13.3333 8.0013 13.3333C8.36949 13.3333 8.66797 13.0349 8.66797 12.6667V8.66666H12.668C13.0362 8.66666 13.3346 8.36819 13.3346 8C13.3346 7.63181 13.0362 7.33333 12.668 7.33333Z" fill="white"/>
</svg>
