<svg width="14" height="14" viewBox="0 0 14 14" fill="none" xmlns="http://www.w3.org/2000/svg">
<path fillRule="evenodd" clipRule="evenodd" d="M12.9987 3.00094H9.66537V1.88761V1.8876C9.6328 0.999005 8.88738 0.304278 7.9987 0.334272H5.9987V0.334272C5.11 0.304281 4.3646 0.999005 4.33203 1.8876V3.00094H0.998698C0.630508 3.00094 0.332031 3.29942 0.332031 3.66761C0.332031 4.0358 0.630508 4.33427 0.998698 4.33427H1.66536V11.6676C1.66536 12.7722 2.5608 13.6676 3.66536 13.6676H10.332C11.4366 13.6676 12.332 12.7722 12.332 11.6676V4.33427H12.9987C13.3669 4.33427 13.6654 4.0358 13.6654 3.66761C13.6654 3.29942 13.3669 3.00094 12.9987 3.00094ZM5.66536 1.88667C5.66536 1.78 5.80536 1.66667 5.9987 1.66667H7.9987C8.19203 1.66667 8.33203 1.78 8.33203 1.88667V3H5.66536V1.88667ZM10.9987 11.6667C10.9987 12.0349 10.7002 12.3333 10.332 12.3333H3.66536C3.29717 12.3333 2.9987 12.0349 2.9987 11.6667V4.33334H10.9987V11.6667Z" fill="#BDBDBD"/>
</svg>
