<svg width="16" height="16" viewBox="0 0 16 16" fill="none" xmlns="http://www.w3.org/2000/svg">
<path fillRule="evenodd" clipRule="evenodd" d="M15.0019 0C15.5542 0 16.0019 0.447715 16.0019 1L16.0019 6C16.0019 6.55228 15.5542 7 15.0019 7C14.4496 7 14.0019 6.55228 14.0019 6V3.42L10.7119 6.71L10.7061 6.7158C10.314 7.10472 9.68081 7.10212 9.29189 6.71L9.28609 6.7042C8.89717 6.31208 8.89977 5.67892 9.29189 5.29L12.5719 2H10.0019C9.44961 2 9.00189 1.55228 9.00189 1C9.00189 0.447715 9.44961 0 10.0019 0H15.0019ZM5.2958 9.2842C5.68792 8.89528 6.32108 8.89788 6.71 9.29L6.7158 9.2958C7.10472 9.68792 7.10212 10.3211 6.71 10.71L3.42 14H6C6.55229 14 7 14.4477 7 15C7 15.5523 6.55229 16 6 16H1C0.447715 16 0 15.5523 0 15V10C0 9.44771 0.447715 9 1 9C1.55228 9 2 9.44771 2 10V12.57L5.29 9.29L5.2958 9.2842Z" fill="#E20074"/>
</svg>
