<svg width="18" height="21" viewBox="0 0 18 21" fill="none" xmlns="http://www.w3.org/2000/svg">
<path d="M0.641121 0.12092C0.475341 0.138264 0.321745 0.2167 0.210481 0.34092C0.0992329 0.464984 0.0381371 0.626076 0.0390731 0.7928V16.0244C0.0390731 16.2025 0.109853 16.3735 0.235949 16.4996C0.361885 16.6255 0.532825 16.6963 0.711109 16.6963H6.76631C7.64663 18.7968 9.72115 20.2802 12.1355 20.2802C15.3441 20.2802 17.9595 17.6649 17.9595 14.4566C17.9595 11.5538 15.8161 9.1366 13.0315 8.703V5.72112H13.0314C13.0346 5.52753 12.9542 5.3419 12.8107 5.21192C12.6673 5.08192 12.4746 5.02004 12.2823 5.04223C12.1165 5.06129 11.9639 5.14145 11.8538 5.26692C11.7438 5.39239 11.6845 5.55426 11.6873 5.72112V8.64704C11.0584 8.69501 10.4529 8.84813 9.89525 9.08096H2.95125H2.9514C2.92812 9.07971 2.90468 9.07971 2.8814 9.08096C2.64124 9.09346 2.42608 9.23315 2.31688 9.44737C2.20766 9.66143 2.2211 9.91769 2.35188 10.1192C2.48282 10.321 2.71126 10.4375 2.9514 10.4249H7.9422C6.93532 11.4719 6.31128 12.8938 6.31128 14.4569C6.31128 14.7623 6.33566 15.0597 6.38128 15.3528H1.38328V1.46559H11.6873V3.48151H11.6871C11.6846 3.66136 11.7543 3.83479 11.8806 3.96275C12.0068 4.09088 12.1793 4.16306 12.3592 4.16306C12.539 4.16306 12.7115 4.09088 12.8378 3.96275C12.964 3.83478 13.0337 3.66134 13.0312 3.48151V0.793552C13.0312 0.615428 12.9604 0.444488 12.8343 0.318552C12.7082 0.19246 12.5374 0.121676 12.3592 0.121676H0.711161C0.68788 0.120426 0.664441 0.120426 0.641161 0.121676L0.641121 0.12092ZM2.88112 2.36076C2.64097 2.37326 2.4258 2.51295 2.3166 2.72701C2.20738 2.94123 2.22082 3.19733 2.3516 3.39905C2.48254 3.60077 2.71098 3.71717 2.95112 3.70467H7.43112C7.61096 3.70733 7.7844 3.63764 7.91236 3.51124C8.04048 3.38499 8.11267 3.21264 8.11267 3.0328C8.11267 2.85295 8.04048 2.68045 7.91236 2.5542C7.78439 2.42795 7.61095 2.35826 7.43112 2.36076H2.95112C2.92784 2.35951 2.9044 2.35951 2.88112 2.36076ZM2.88112 4.6006V4.60076C2.64097 4.61326 2.4258 4.75279 2.3166 4.967C2.20738 5.18107 2.22082 5.43732 2.3516 5.63888C2.48254 5.8406 2.71098 5.95716 2.95112 5.94466H10.1191C10.299 5.94716 10.4724 5.87748 10.6005 5.75123C10.7285 5.62498 10.8007 5.45248 10.8007 5.27263C10.8007 5.09278 10.7285 4.92044 10.6005 4.79403C10.4724 4.66778 10.299 4.59809 10.1191 4.60075H2.95112C2.92784 4.5995 2.9044 4.5995 2.88112 4.60075V4.6006ZM2.88112 6.84044V6.8406C2.64097 6.8531 2.4258 6.99278 2.3166 7.20684C2.20738 7.42106 2.22082 7.67716 2.3516 7.87888C2.48254 8.08045 2.71098 8.19701 2.95112 8.18451H7.43112C7.61096 8.18701 7.7844 8.11732 7.91236 7.99107C8.04048 7.86482 8.11267 7.69248 8.11267 7.51247C8.11267 7.33263 8.04048 7.16028 7.91236 7.03403C7.78439 6.90778 7.61095 6.8381 7.43112 6.8406H2.95112C2.92784 6.83935 2.9044 6.83935 2.88112 6.8406V6.84044ZM12.1351 9.97636C14.6173 9.97636 16.6151 11.974 16.6151 14.4564C16.6151 16.9384 14.6173 18.9364 12.1351 18.9364C9.65292 18.9364 7.65512 16.9387 7.65512 14.4564C7.65512 11.9743 9.65292 9.97636 12.1351 9.97636ZM12.1281 10.8584H12.1282C11.9487 10.8603 11.7775 10.9337 11.6526 11.0626C11.5276 11.1915 11.4595 11.365 11.4632 11.5443V14.4562C11.464 14.6187 11.5237 14.7753 11.6312 14.8971L13.1992 16.689V16.6892C13.3163 16.8254 13.4832 16.9092 13.6624 16.9215C13.8418 16.934 14.0187 16.874 14.1534 16.7551C14.2882 16.6362 14.3698 16.4684 14.3799 16.2889C14.3899 16.1095 14.3277 15.9334 14.2071 15.8001L12.8071 14.1972V11.5442V11.5443C12.8109 11.3625 12.7409 11.1868 12.6129 11.0576C12.4849 10.9284 12.3101 10.8565 12.1282 10.8584L12.1281 10.8584Z" fill="white"/>
</svg>
