<svg width="21" height="18" viewBox="0 0 21 18" fill="none" xmlns="http://www.w3.org/2000/svg">
<path d="M2 17H16.927C17.3665 17 17.7545 16.713 17.8832 16.2927L19.7709 10.126C19.9677 9.48329 19.4869 8.83333 18.8147 8.83333H5.08763C4.64115 8.83333 4.24877 9.12931 4.12611 9.55861L2 17ZM2 17H1.5V17C1.22386 17 1 16.7761 1 16.5V6.16667" stroke="white" strokeWidth="1.2"/>
<path d="M1 6.5V6C1 5.44772 1.44772 5 2 5H3.33333M17.6667 9V6C17.6667 5.44772 17.219 5 16.6667 5H14.6667" stroke="white" strokeWidth="1.2"/>
<path d="M3 13.5V2C3 1.44772 3.44771 1 4 1H13.2C13.7523 1 14.2 1.44772 14.2 2V8.96429" stroke="white" strokeWidth="1.2"/>
<line x1="6.6" y1="3.4" x2="11.4" y2="3.4" stroke="white" strokeWidth="1.2" strokeLinecap="round"/>
<line x1="6.6" y1="6.4" x2="11.4" y2="6.4" stroke="white" strokeWidth="1.2" strokeLinecap="round"/>
</svg>
