<svg width="20" height="16" viewBox="0 0 20 16" fill="none" xmlns="http://www.w3.org/2000/svg">
<path fill-rule="evenodd" clip-rule="evenodd" d="M12.33 15.9998H12.12C11.2514 15.9136 10.539 15.274 10.36 14.4198L7.68 1.99975L4.92 8.39975C4.76045 8.76534 4.39889 9.00114 4 8.99975H1C0.447715 8.99975 0 8.55204 0 7.99975C2.41411e-08 7.44747 0.447715 6.99975 1 6.99975H3.34L5.85 1.20975C6.2905 0.196824 7.46873 -0.267236 8.48167 0.173264C9.0738 0.430763 9.50518 0.958293 9.64 1.58975L12.32 13.9998L15.08 7.61975C15.2334 7.24633 15.5963 7.00177 16 6.99975H19C19.5523 6.99975 20 7.44747 20 7.99975C20 8.55204 19.5523 8.99975 19 8.99975H16.66L14.15 14.7898C13.8368 15.5182 13.1229 15.9929 12.33 15.9998Z" fill="#E20074"/>
</svg>
