<svg width="168" height="44" viewBox="0 0 168 44" fill="none" xmlns="http://www.w3.org/2000/svg">
<path d="M6.49824 23.1978V4.88889H3.56641V23.1978H6.49824ZM21.1574 17.7467H21.0108L13.4125 4.88889H10.4562V23.1978H13.3636V10.2911H13.5347L21.133 23.1978H24.0893V4.88889H21.1819L21.1574 17.7467ZM27.2166 14.0067C27.2166 19.8978 29.9774 23.5889 34.7905 23.5889C36.4734 23.6082 38.1018 22.9926 39.3515 21.8646C40.6011 20.7366 41.3803 19.1791 41.5337 17.5022H38.553C38.4441 18.4115 38.0012 19.2479 37.3103 19.8487C36.6195 20.4495 35.7301 20.772 34.8149 20.7533C31.9319 20.7533 30.295 18.3089 30.295 14.0067C30.295 9.70445 31.9319 7.33333 34.8149 7.33333C35.7176 7.3179 36.595 7.63199 37.283 8.21686C37.971 8.80173 38.4225 9.61733 38.553 10.5111H41.5337C41.3792 8.82358 40.5888 7.25806 39.3229 6.13223C38.0569 5.0064 36.4103 4.40458 34.7172 4.44889C30.0018 4.44889 27.241 8.09111 27.241 14.0067H27.2166ZM52.7236 15.9133C53.9421 15.6417 55.0233 14.9428 55.7716 13.9431C56.52 12.9433 56.8861 11.7086 56.8037 10.4622C56.8272 9.69653 56.6885 8.93452 56.3965 8.22633C56.1046 7.51814 55.6661 6.87981 55.1099 6.35334C54.5537 5.82687 53.8924 5.42419 53.1695 5.17178C52.4466 4.91938 51.6784 4.82296 50.9156 4.88889H44.4167V23.1978H47.3485V16.1333H49.7917L53.7497 23.1978H57.0236L52.7236 15.9133ZM50.7201 7.55333C51.1173 7.51379 51.5183 7.56087 51.8955 7.69133C52.2727 7.82179 52.6172 8.03253 52.9052 8.30903C53.1931 8.58552 53.4177 8.9212 53.5635 9.29292C53.7093 9.66464 53.7729 10.0636 53.7497 10.4622C53.776 10.8638 53.7151 11.2663 53.5711 11.6421C53.4271 12.0179 53.2035 12.358 52.9156 12.6391C52.6277 12.9201 52.2824 13.1355 51.9034 13.2703C51.5244 13.4051 51.1207 13.4562 50.7201 13.42H47.3485V7.55333H50.7201ZM70.4123 4.88889H59.931V23.1978H70.4123V20.4844H62.8384V15.2044H70.168V12.4667H62.8384V7.57778H70.4123V4.88889ZM82.6283 15.7667H82.3351L76.4226 4.88889H73.7351V23.1978H76.6425V11.2444H76.8135L81.9442 20.4356H82.9215L87.9545 11.2444H88.1255V23.1978H91.0329V4.88889H88.3454L82.6283 15.7667ZM105.57 4.88889H95.0886V23.1978H105.57V20.4844H97.996V15.2044H105.326V12.4667H97.996V7.57778H105.57V4.88889ZM119.716 17.7467H119.545L111.849 4.88889H108.893V23.1978H111.8V10.2911H111.971L119.545 23.1978H122.526V4.88889H119.716V17.7467ZM130.1 7.55333V23.1978H132.909V7.55333H137.918V4.88889H124.993V7.55333H130.1ZM152.308 23.1978L145.858 4.88889H142.951L136.599 23.2711H139.555L140.874 19.3356H147.911L149.23 23.2711L152.308 23.1978ZM144.319 9.11778H144.49L146.933 16.4511H141.827L144.319 9.11778ZM164.427 23.1978V20.4844H157.39V4.88889H154.458V23.1978H164.427Z" fill="white"/>
<path d="M35.6966 30.9956H7.59981C5.23847 30.9956 3.32422 32.9108 3.32422 35.2733C3.32422 37.6359 5.23847 39.5511 7.59981 39.5511H35.6966C38.0579 39.5511 39.9722 37.6359 39.9722 35.2733C39.9722 32.9108 38.0579 30.9956 35.6966 30.9956Z" fill="white"/>
<path d="M77.181 30.9956H49.0842C46.7228 30.9956 44.8086 32.9108 44.8086 35.2733C44.8086 37.6359 46.7228 39.5511 49.0842 39.5511H77.181C79.5423 39.5511 81.4566 37.6359 81.4566 35.2733C81.4566 32.9108 79.5423 30.9956 77.181 30.9956Z" fill="white"/>
<path d="M159.539 30.9956H132.664C131.45 30.9216 130.257 31.3293 129.342 32.1301C128.427 32.9309 127.865 34.0604 127.777 35.2733C127.859 36.4887 128.419 37.622 129.336 38.4241C130.252 39.2262 131.449 39.6316 132.664 39.5511H159.539C160.752 39.6251 161.946 39.2174 162.861 38.4166C163.775 37.6157 164.338 36.4863 164.425 35.2733C164.338 34.0604 163.775 32.9309 162.861 32.1301C161.946 31.3293 160.752 30.9216 159.539 30.9956ZM159.686 37.4733H132.493C132.186 37.5058 131.876 37.4734 131.583 37.3783C131.29 37.2831 131.02 37.1273 130.791 36.921C130.561 36.7147 130.378 36.4625 130.253 36.1807C130.127 35.899 130.062 35.594 130.062 35.2856C130.062 34.9771 130.127 34.6721 130.253 34.3904C130.378 34.1086 130.561 33.8564 130.791 33.6501C131.02 33.4438 131.29 33.288 131.583 33.1929C131.876 33.0977 132.186 33.0653 132.493 33.0978H159.686C159.992 33.0653 160.302 33.0977 160.595 33.1929C160.889 33.288 161.159 33.4438 161.388 33.6501C161.617 33.8564 161.8 34.1086 161.926 34.3904C162.051 34.6721 162.116 34.9771 162.116 35.2856C162.116 35.594 162.051 35.899 161.926 36.1807C161.8 36.4625 161.617 36.7147 161.388 36.921C161.159 37.1273 160.889 37.2831 160.595 37.3783C160.302 37.4734 159.992 37.5058 159.686 37.4733Z" fill="white"/>
<path d="M118.055 30.9956H91.1794C89.9661 30.9216 88.7726 31.3293 87.8578 32.1301C86.943 32.9309 86.3808 34.0604 86.293 35.2733C86.3745 36.4887 86.935 37.622 87.8512 38.4241C88.7675 39.2262 89.9645 39.6316 91.1794 39.5511H118.055C119.268 39.6251 120.461 39.2174 121.376 38.4166C122.291 37.6157 122.853 36.4863 122.941 35.2733C122.853 34.0604 122.291 32.9309 121.376 32.1301C120.461 31.3293 119.268 30.9216 118.055 30.9956ZM118.226 37.4733H105.203C105.51 37.5058 105.82 37.4734 106.113 37.3783C106.406 37.2831 106.676 37.1273 106.906 36.921C107.135 36.7147 107.318 36.4625 107.443 36.1807C107.569 35.899 107.634 35.594 107.634 35.2856C107.634 34.9771 107.569 34.6721 107.443 34.3904C107.318 34.1086 107.135 33.8564 106.906 33.6501C106.676 33.4438 106.406 33.288 106.113 33.1929C105.82 33.0977 105.51 33.0653 105.203 33.0978H118.226C118.532 33.0653 118.842 33.0977 119.135 33.1929C119.429 33.288 119.699 33.4438 119.928 33.6501C120.157 33.8564 120.34 34.1086 120.466 34.3904C120.591 34.6721 120.656 34.9771 120.656 35.2856C120.656 35.594 120.591 35.899 120.466 36.1807C120.34 36.4625 120.157 36.7147 119.928 36.921C119.699 37.1273 119.429 37.2831 119.135 37.3783C118.842 37.4734 118.532 37.5058 118.226 37.4733Z" fill="white"/>
</svg>
