<svg width="18" height="21" viewBox="0 0 18 21" fill="none" xmlns="http://www.w3.org/2000/svg">
<path fillRule="evenodd" clipRule="evenodd" d="M11.9998 3.99963V3.99964C11.9962 5.2679 11.1955 6.39689 9.99976 6.81964V19.9996C9.99976 20.5519 9.55205 20.9996 8.99976 20.9996C8.44748 20.9996 7.99976 20.5519 7.99976 19.9996V6.81964C6.79822 6.39483 5.99621 5.25724 5.99978 3.98281C6.00442 2.32597 7.35133 0.986588 9.00818 0.991235C10.665 0.995875 12.0044 2.34279 11.9998 3.99963ZM17.9998 11.9996C17.9962 10.7314 17.1955 9.6024 15.9998 9.17965V1.99964C15.9998 1.44735 15.5521 0.999639 14.9998 0.999639C14.4475 0.999639 13.9998 1.44735 13.9998 1.99964V9.17964C12.4423 9.74492 11.638 11.4657 12.2033 13.0232C12.5065 13.8585 13.1644 14.5164 13.9998 14.8196V19.9996C13.9998 20.5519 14.4475 20.9996 14.9998 20.9996C15.5521 20.9996 15.9998 20.5519 15.9998 19.9996V14.8196C17.1955 14.3969 17.9962 13.2679 17.9998 11.9996ZM3.99975 13.1796V1.99964C3.99975 1.44736 3.55204 0.999643 2.99975 0.999643C2.44747 0.999643 1.99975 1.44736 1.99975 1.99964V13.1796C0.442314 13.7449 -0.361996 15.4657 0.203274 17.0232C0.506464 17.8585 1.1644 18.5165 1.99975 18.8196V19.9996C1.99975 20.5519 2.44747 20.9996 2.99975 20.9996C3.55204 20.9996 3.99975 20.5519 3.99975 19.9996V18.8196C5.55719 18.2544 6.3615 16.5336 5.79623 14.9761C5.49304 14.1408 4.8351 13.4828 3.99975 13.1796Z" fill="#E20074"/>
</svg>
