<svg width="16" height="20" viewBox="0 0 16 20" fill="none" xmlns="http://www.w3.org/2000/svg">
<path fillRule="evenodd" clipRule="evenodd" d="M15.74 5.33018L11.3 0.330184C11.1109 0.120705 10.8422 0.000850743 10.56 0.000183743H2.56V0.000183742C1.16282 -0.0164819 0.0166743 1.10264 4.28259e-06 2.49982C2.86823e-06 2.49994 1.46221e-06 2.50006 6.45268e-08 2.50018V17.5002L0 17.5002C0.0164662 18.8974 1.16246 20.0167 2.55964 20.0002C2.55976 20.0002 2.55988 20.0002 2.56 20.0002H13.44C14.8372 20.0168 15.9833 18.8977 16 17.5005C16 17.5004 16 17.5003 16 17.5002V6.00018V6.00018C15.9994 5.75235 15.9067 5.51358 15.74 5.33018L15.74 5.33018ZM9.99851 2.00024L13.7385 6.00024H10.7385C10.303 5.97395 9.97126 5.59958 9.99755 5.16407C9.99783 5.15946 9.99815 5.15485 9.99851 5.15024V2.00024Z" fill="#E20074"/>
</svg>
