<svg width="24" height="24" viewBox="0 0 24 24" fill="none" xmlns="http://www.w3.org/2000/svg">
<path fillRule="evenodd" clipRule="evenodd" d="M20.12 8.71L15.29 3.88V3.88C14.7279 3.31723 13.9654 3.0007 13.17 3H6H6C4.34315 3 3 4.34315 3 6V18C3 19.6569 4.34315 21 6 21H18C19.6569 21 21 19.6569 21 18V10.83V10.8301C20.9993 10.0347 20.6828 9.27216 20.1201 8.71007L20.12 8.71ZM10 19V17H14V19H10ZM19 18C19 18.5523 18.5523 19 18 19H16V16C16 15.4477 15.5523 15 15 15H9C8.44771 15 8 15.4477 8 16V19H6C5.44772 19 5 18.5523 5 18V6V6C5 5.44772 5.44772 5 6 5H8V10C8 10.5523 8.44771 11 9 11H13C13.5523 11 14 10.5523 14 10C14 9.44771 13.5523 9 13 9H10V5H13.17C13.4348 5.00368 13.6884 5.10727 13.88 5.29L18.71 10.12C18.8972 10.3087 19.0015 10.5642 19 10.83V18Z" fill="#E20074"/>
</svg>
