<svg width="19" height="16" viewBox="0 0 19 16" fill="none" xmlns="http://www.w3.org/2000/svg">
<path fill-rule="evenodd" clip-rule="evenodd" d="M18.4083 1.89L14.4083 0.09H13.5883L9.9983 1.7L6.4083 0.09H6.3583L6.2383 0H5.6383L1.6383 1.8H1.6383C1.22876 1.95692 0.969268 2.36239 0.998303 2.8V15L0.998303 15C0.998866 15.34 1.17214 15.6564 1.45829 15.84C1.61925 15.944 1.80669 15.9995 1.9983 16C2.1398 15.9993 2.27954 15.9687 2.4083 15.91L5.9983 14.3L9.5883 15.91H9.6383C9.86645 16.0167 10.1302 16.0167 10.3583 15.91H10.4083L13.9983 14.3L17.5883 15.91C17.7171 15.9687 17.8568 15.9993 17.9983 16C18.1899 15.9995 18.3773 15.944 18.5383 15.84C18.8245 15.6564 18.9977 15.34 18.9983 15V2.8V2.80001C18.9975 2.40712 18.7667 2.0511 18.4083 1.89001L18.4083 1.89ZM7 2.55005L9 3.44005V13.44L7 12.55V2.55005ZM17 13.4501L15 12.5601V2.56006L17 3.45006V13.4501Z" fill="#E20074"/>
</svg>
